<svg xmlns="http://www.w3.org/2000/svg" xmlns:xlink="http://www.w3.org/1999/xlink" width="500" zoomAndPan="magnify" viewBox="0 0 375 374.999991" height="500" preserveAspectRatio="xMidYMid meet" version="1.2"><defs/><g id="ded1369613"><rect x="0" width="375" y="0" height="374.999991" style="fill:#ffffff;fill-opacity:1;stroke:none;"/><rect x="0" width="375" y="0" height="374.999991" style="fill:#171717;fill-opacity:1;stroke:none;"/><g style="fill:#ffffff;fill-opacity:1;"><g transform="translate(56.980713, 234.302512)"><path style="stroke:none" d="M 30.515625 -62.984375 L 30.515625 0 L 7.375 0 L 7.375 -101.484375 L 30.515625 -101.484375 L 70.859375 -38.5 L 71.109375 -38.5 L 71.109375 -101.484375 L 94.234375 -101.484375 L 94.234375 0 L 71.109375 0 L 30.75 -62.984375 Z M 30.515625 -62.984375 "/></g></g><g style="fill:#ffffff;fill-opacity:1;"><g transform="translate(155.386125, 234.302512)"><path style="stroke:none" d="M 0.984375 -81.1875 L 0.984375 -101.484375 L 72.328125 -101.484375 L 72.328125 -81.1875 L 48.21875 -81.1875 L 48.21875 0 L 25.09375 0 L 25.09375 -81.1875 Z M 0.984375 -81.1875 "/></g></g><g style="fill:#ffffff;fill-opacity:1;"><g transform="translate(226.311695, 234.302512)"><path style="stroke:none" d="M 44.78125 -103.328125 C 50.269531 -103.328125 55.640625 -102.523438 60.890625 -100.921875 C 66.140625 -99.328125 70.035156 -97.753906 72.578125 -96.203125 L 76.265625 -93.734375 L 66.921875 -75.28125 C 66.179688 -75.78125 65.15625 -76.414062 63.84375 -77.1875 C 62.53125 -77.96875 60.066406 -79.015625 56.453125 -80.328125 C 52.847656 -81.640625 49.488281 -82.296875 46.375 -82.296875 C 42.519531 -82.296875 39.546875 -81.472656 37.453125 -79.828125 C 35.367188 -78.191406 34.328125 -75.976562 34.328125 -73.1875 C 34.328125 -71.800781 34.816406 -70.507812 35.796875 -69.3125 C 36.785156 -68.125 38.46875 -66.851562 40.84375 -65.5 C 43.21875 -64.144531 45.304688 -63.054688 47.109375 -62.234375 C 48.921875 -61.421875 51.710938 -60.195312 55.484375 -58.5625 C 62.046875 -55.769531 67.640625 -51.972656 72.265625 -47.171875 C 76.898438 -42.378906 79.21875 -36.945312 79.21875 -30.875 C 79.21875 -25.050781 78.171875 -19.96875 76.078125 -15.625 C 73.992188 -11.28125 71.125 -7.875 67.46875 -5.40625 C 63.820312 -2.945312 59.785156 -1.125 55.359375 0.0625 C 50.929688 1.25 46.132812 1.84375 40.96875 1.84375 C 36.539062 1.84375 32.191406 1.390625 27.921875 0.484375 C 23.660156 -0.410156 20.09375 -1.535156 17.21875 -2.890625 C 14.351562 -4.242188 11.769531 -5.578125 9.46875 -6.890625 C 7.175781 -8.203125 5.492188 -9.304688 4.421875 -10.203125 L 2.828125 -11.5625 L 14.390625 -31 C 15.378906 -30.175781 16.734375 -29.128906 18.453125 -27.859375 C 20.171875 -26.585938 23.222656 -24.882812 27.609375 -22.75 C 32.003906 -20.625 35.878906 -19.5625 39.234375 -19.5625 C 48.992188 -19.5625 53.875 -22.882812 53.875 -29.53125 C 53.875 -30.914062 53.523438 -32.203125 52.828125 -33.390625 C 52.140625 -34.585938 50.910156 -35.78125 49.140625 -36.96875 C 47.378906 -38.15625 45.820312 -39.097656 44.46875 -39.796875 C 43.113281 -40.492188 40.898438 -41.554688 37.828125 -42.984375 C 34.753906 -44.421875 32.476562 -45.507812 31 -46.25 C 24.851562 -49.289062 20.097656 -53.082031 16.734375 -57.625 C 13.367188 -62.175781 11.6875 -67.078125 11.6875 -72.328125 C 11.6875 -81.429688 15.046875 -88.875 21.765625 -94.65625 C 28.492188 -100.4375 36.164062 -103.328125 44.78125 -103.328125 Z M 44.78125 -103.328125 "/></g></g><path style="fill:none;stroke-width:26;stroke-linecap:butt;stroke-linejoin:miter;stroke:#ffffff;stroke-opacity:1;stroke-miterlimit:4;" d="M 10.425164 69.088551 C 66.130996 -5.696773 121.828209 -5.697903 177.5318 69.091978 " transform="matrix(-0.549648,0.510281,-0.510281,-0.549648,384.664462,211.170236)"/><path style="fill:none;stroke-width:26;stroke-linecap:butt;stroke-linejoin:miter;stroke:#ffffff;stroke-opacity:1;stroke-miterlimit:4;" d="M 10.105954 64.651932 C 65.809897 -4.214373 121.51015 -4.218062 177.214093 64.648243 " transform="matrix(0.529445,-0.529445,0.529445,0.529445,-11.818489,162.949016)"/></g></svg>